<?xml version="1.0" encoding="iso-8859-1"?>
<!-- Generator: Adobe Illustrator 19.0.0, SVG Export Plug-In . SVG Version: 6.00 Build 0)  -->
<svg version="1.1" id="Layer_1" xmlns="http://www.w3.org/2000/svg" xmlns:xlink="http://www.w3.org/1999/xlink" x="0px" y="0px"
	 viewBox="0 0 512 512" style="enable-background:new 0 0 512 512;" xml:space="preserve">
<g>
	<g>
		<path d="M495.445,93.355c-5-5.001-13.099-5.001-18.099,0L256,314.701L137.045,195.755c-5.001-5.001-13.099-5.001-18.099,0
			c-5,5.001-5,13.099,0,18.099l128,128c2.5,2.5,5.777,3.746,9.054,3.746s6.554-1.254,9.045-3.746l230.4-230.4
			C500.446,106.453,500.446,98.355,495.445,93.355z"/>
	</g>
</g>
<g>
	<g>
		<path d="M490.214,152.892l-19.686,19.678C480.64,198.485,486.4,226.551,486.4,256c0,127.044-103.356,230.4-230.4,230.4
			S25.6,383.044,25.6,256S128.956,25.6,256,25.6c69.239,0,131.285,30.839,173.56,79.343l18.176-18.176
			C400.828,33.673,332.425,0,256,0C114.62,0,0,114.62,0,256s114.62,256,256,256s256-114.62,256-256
			C512,219.29,504.132,184.457,490.214,152.892z"/>
	</g>
</g>
<g>
</g>
<g>
</g>
<g>
</g>
<g>
</g>
<g>
</g>
<g>
</g>
<g>
</g>
<g>
</g>
<g>
</g>
<g>
</g>
<g>
</g>
<g>
</g>
<g>
</g>
<g>
</g>
<g>
</g>
</svg>
